<svg width="41" height="40" viewBox="0 0 41 40" fill="none" xmlns="http://www.w3.org/2000/svg">
<g clip-path="url(#clip0_119_2329)">
<path d="M34.3194 0H5.95962C2.71976 0 0.0839844 2.62848 0.0839844 5.85938V34.1406C0.0839844 37.3715 2.71976 40 5.95962 40H34.3194C37.5592 40 40.195 37.3715 40.195 34.1406V5.85938C40.195 2.62848 37.5592 0 34.3194 0ZM37.8448 34.1406C37.8448 36.0791 36.2632 37.6562 34.3194 37.6562H5.95962C4.01577 37.6562 2.43424 36.0791 2.43424 34.1406V5.85938C2.43424 3.9209 4.01577 2.34375 5.95962 2.34375H34.3194C36.2632 2.34375 37.8448 3.9209 37.8448 5.85938V34.1406Z" fill="#070707" stroke="#070707" stroke-width="0.5"/>
<path d="M18.9642 16.4844C18.9642 13.8995 16.8557 11.7969 14.2637 11.7969H7.21289V28.2031H14.2637C16.8557 28.2031 18.9642 26.1005 18.9642 23.5156C18.9642 22.1167 18.3457 20.8597 17.3676 20C18.3457 19.1403 18.9642 17.8833 18.9642 16.4844ZM16.6139 23.5156C16.6139 24.808 15.5597 25.8594 14.2637 25.8594H9.56315V21.1719H14.2637C15.5597 21.1719 16.6139 22.2232 16.6139 23.5156ZM9.56315 18.8281V14.1406H14.2637C15.5597 14.1406 16.6139 15.192 16.6139 16.4844C16.6139 17.7768 15.5597 18.8281 14.2637 18.8281H9.56315Z" fill="#070707" stroke="#070707" stroke-width="0.5"/>
<path d="M27.1901 16.4844C23.9502 16.4844 21.3145 19.1129 21.3145 22.3438C21.3145 25.5746 23.9502 28.2031 27.1901 28.2031C29.2811 28.2031 31.2311 27.081 32.2789 25.2744L30.2445 24.1006C29.6153 25.1855 28.4448 25.8594 27.1901 25.8594C25.6578 25.8594 24.3511 24.8798 23.8661 23.5156H33.0657V22.3438C33.0657 19.1129 30.43 16.4844 27.1901 16.4844ZM23.8661 21.1719C24.3511 19.8077 25.6578 18.8281 27.1901 18.8281C28.7224 18.8281 30.0291 19.8077 30.5141 21.1719H23.8661Z" fill="#070707" stroke="#070707" stroke-width="0.5"/>
<path d="M22.4902 11.7969H31.8913V14.1406H22.4902V11.7969Z" fill="#070707" stroke="#070707" stroke-width="0.5"/>
</g>
<defs>
<clipPath id="clip0_119_2329">
<rect width="40.111" height="40" fill="white" transform="translate(0.0839844)"/>
</clipPath>
</defs>
</svg>
