<svg width="40" height="41" viewBox="0 0 40 41" fill="none" xmlns="http://www.w3.org/2000/svg">
<path d="M30.6631 7.90189L30.9688 7.51765L30.5902 7.20501C27.6748 4.79787 23.9722 3.35998 19.9213 3.35998C18.5021 3.35998 17.1262 3.55879 15.8234 3.8845L15.0963 4.06629L15.5434 4.66785C16.934 6.53872 18.9317 9.36428 21.3241 13.7896L21.5307 14.1718L21.938 14.0205C26.4653 12.3395 29.1782 9.76804 30.6631 7.90189ZM13.3628 5.14412L13.1178 4.82133L12.7512 4.99422C8.25511 7.11505 4.84875 11.1659 3.50409 16.1128L3.33801 16.7238L3.97085 16.7437C6.44675 16.8217 12.365 16.705 18.9226 14.9482L19.5411 14.7825L19.2304 14.2226C16.687 9.63894 14.548 6.7054 13.3628 5.14412ZM32.8166 9.4031L32.4289 8.94246L32.0473 9.40819C30.3913 11.4294 27.516 14.0547 22.9637 15.8361L22.4574 16.0342L22.6971 16.5221C23.6786 18.5203 24.6308 20.6496 25.4984 22.949L25.6413 23.3279L26.0416 23.2668C29.3349 22.7639 32.3791 22.7639 34.6785 22.944C35.2376 22.9904 35.5983 23.0425 36.0182 23.1031C36.1067 23.1159 36.1978 23.1291 36.2939 23.1426L36.8059 23.2149L36.8609 22.7007C36.9283 22.0701 36.9671 21.4368 36.9671 20.7822C36.9671 16.4287 35.3897 12.4602 32.8166 9.4031ZM20.6696 17.0304L20.4845 16.6592L20.0855 16.7726C12.3723 18.9639 5.57754 18.897 3.46149 18.8116L2.97966 18.7921L2.94279 19.2729L2.94021 19.3066C2.90364 19.7831 2.86611 20.2721 2.86611 20.7918C2.86611 26.0256 5.13048 30.6976 8.70143 33.8945L9.07422 34.2283L9.4077 33.8552C10.3028 32.8539 11.5034 31.5786 12.9631 30.2474L12.965 30.2456C15.7113 27.7139 19.2447 25.0351 23.0937 23.8663L23.6106 23.7093L23.4142 23.2061C22.5527 20.9984 21.6251 18.9462 20.6696 17.0304ZM30.1591 24.9266L30.1537 24.9268C29.1426 24.9756 28.0663 25.0731 26.9718 25.2191L26.377 25.2984L26.5623 25.8692C27.4861 28.713 28.2502 31.7255 28.7438 34.8593L28.8681 35.6482L29.5235 35.1919C32.7095 32.9733 35.1195 29.6763 36.2422 25.8059L36.4075 25.2363L35.8181 25.1698C34.3581 25.0049 32.5068 24.8387 30.1591 24.9266ZM24.5031 26.1119L24.3495 25.6585L23.8899 25.7922C20.5085 26.7761 16.9716 29.3273 14.2912 31.7876C12.996 32.9662 11.95 34.085 11.1105 35.0015L10.6978 35.452L11.2211 35.7674C13.7666 37.3018 16.7225 38.2045 19.9119 38.2045C22.3056 38.2045 24.5633 37.6988 26.6252 36.8078L26.9732 36.6573L26.9223 36.2816C26.438 32.7078 25.5838 29.3017 24.5031 26.1119ZM0.867188 20.7822C0.867188 10.029 9.43443 1.2832 19.9213 1.2832C30.4082 1.2832 38.9754 10.029 38.9754 20.7822C38.9754 31.5354 30.4082 40.2812 19.9213 40.2812C9.43443 40.2812 0.867188 31.5354 0.867188 20.7822Z" fill="#070707" stroke="#070707"/>
</svg>
